<mxfile host="app.diagrams.net" agent="Mozilla/5.0 (Windows NT 10.0; Win64; x64) AppleWebKit/537.36 (KHTML, like Gecko) Chrome/134.0.0.0 Safari/537.36" version="26.1.1">
  <diagram name="페이지-1" id="TAn7N13Jx-bnSTn3KSoC">
    <mxGraphModel dx="2220" dy="1318" grid="1" gridSize="10" guides="1" tooltips="1" connect="1" arrows="1" fold="1" page="1" pageScale="1" pageWidth="827" pageHeight="1169" background="#FFFFCC" math="0" shadow="0">
      <root>
        <mxCell id="0" />
        <mxCell id="1" parent="0" />
        <mxCell id="3FqnuOCyZMVW-b-WIu23-46" value="" style="html=1;overflow=block;blockSpacing=1;whiteSpace=wrap;container=1;pointerEvents=0;collapsible=0;recursiveResize=0;fontSize=16.7;fontFamily=Liberation Serif;spacing=0;strokeColor=#unset;fillOpacity=0;rounded=1;absoluteArcSize=1;arcSize=0;fillColor=#000000;strokeWidth=NaN;lucidId=ROJ1W-cXRblG;" vertex="1" parent="1">
          <mxGeometry x="210" y="-20" width="1105" height="1160" as="geometry" />
        </mxCell>
        <mxCell id="3FqnuOCyZMVW-b-WIu23-50" value="인증" style="html=1;overflow=block;blockSpacing=1;whiteSpace=wrap;ellipse;fontSize=13;spacing=3.8;strokeColor=#3a414a;strokeOpacity=100;fillOpacity=100;rounded=1;absoluteArcSize=1;arcSize=9;fillColor=#ffffff;strokeWidth=1.5;lucidId=~UJ1upYuK-yr;" vertex="1" parent="3FqnuOCyZMVW-b-WIu23-46">
          <mxGeometry x="485" y="191" width="98" height="48" as="geometry" />
        </mxCell>
        <mxCell id="3FqnuOCyZMVW-b-WIu23-51" value="로그인 실패" style="html=1;overflow=block;blockSpacing=1;whiteSpace=wrap;ellipse;fontSize=13;spacing=3.8;strokeColor=#3a414a;strokeOpacity=100;fillOpacity=100;rounded=1;absoluteArcSize=1;arcSize=9;fillColor=#ffffff;strokeWidth=1.5;lucidId=OVJ1k3cuD0YY;" vertex="1" parent="3FqnuOCyZMVW-b-WIu23-46">
          <mxGeometry x="650" y="191" width="105" height="48" as="geometry" />
        </mxCell>
        <mxCell id="3FqnuOCyZMVW-b-WIu23-53" value="" style="html=1;jettySize=18;whiteSpace=wrap;fontSize=13;strokeColor=#3a414a;strokeOpacity=100;dashed=1;fixDash=1;strokeWidth=0.8;rounded=0;startArrow=none;endArrow=open;exitX=0.311;exitY=0.022;exitPerimeter=0;entryX=0.701;entryY=0.973;entryPerimeter=0;lucidId=YXJ1g~EYJ.-b;" edge="1" parent="3FqnuOCyZMVW-b-WIu23-46" source="3FqnuOCyZMVW-b-WIu23-49" target="3FqnuOCyZMVW-b-WIu23-50">
          <mxGeometry width="100" height="100" relative="1" as="geometry">
            <Array as="points" />
          </mxGeometry>
        </mxCell>
        <mxCell id="3FqnuOCyZMVW-b-WIu23-54" value="&amp;lt;&amp;lt;include&amp;gt;&amp;gt;" style="text;html=1;resizable=0;labelBackgroundColor=default;align=center;verticalAlign=middle;fontStyle=1;fontColor=#333333;fontSize=13.3;" vertex="1" parent="3FqnuOCyZMVW-b-WIu23-53">
          <mxGeometry x="-0.17340588335652485" relative="1" as="geometry" />
        </mxCell>
        <mxCell id="3FqnuOCyZMVW-b-WIu23-55" value="" style="html=1;jettySize=18;whiteSpace=wrap;fontSize=13;strokeColor=#3a414a;strokeOpacity=100;dashed=1;fixDash=1;strokeWidth=0.8;rounded=0;startArrow=none;endArrow=open;exitX=0.288;exitY=0.969;exitPerimeter=0;entryX=0.712;entryY=0.031;entryPerimeter=0;lucidId=NYJ1XCIDw1Rq;" edge="1" parent="3FqnuOCyZMVW-b-WIu23-46" source="3FqnuOCyZMVW-b-WIu23-51" target="3FqnuOCyZMVW-b-WIu23-49">
          <mxGeometry width="100" height="100" relative="1" as="geometry">
            <Array as="points" />
          </mxGeometry>
        </mxCell>
        <mxCell id="3FqnuOCyZMVW-b-WIu23-56" value="&amp;lt;&amp;lt;extend&amp;gt;&amp;gt;" style="text;html=1;resizable=0;labelBackgroundColor=default;align=center;verticalAlign=middle;fontStyle=1;fontColor=#333333;fontSize=13.3;" vertex="1" parent="3FqnuOCyZMVW-b-WIu23-55">
          <mxGeometry x="-0.1493987570497035" relative="1" as="geometry" />
        </mxCell>
        <mxCell id="3FqnuOCyZMVW-b-WIu23-59" value="OX Quiz" style="html=1;overflow=block;blockSpacing=1;whiteSpace=wrap;ellipse;fontSize=13;spacing=3.8;strokeColor=#3a414a;strokeOpacity=100;fillOpacity=100;rounded=1;absoluteArcSize=1;arcSize=9;fillColor=#ffffff;strokeWidth=1.5;lucidId=J3J12CJmFM8S;" vertex="1" parent="3FqnuOCyZMVW-b-WIu23-46">
          <mxGeometry x="265" y="408" width="90" height="48" as="geometry" />
        </mxCell>
        <mxCell id="3FqnuOCyZMVW-b-WIu23-60" value="끝말잇기" style="html=1;overflow=block;blockSpacing=1;whiteSpace=wrap;ellipse;fontSize=13;spacing=3.8;strokeColor=#3a414a;strokeOpacity=100;fillOpacity=100;rounded=1;absoluteArcSize=1;arcSize=9;fillColor=#ffffff;strokeWidth=1.5;lucidId=83J1m8gwcz_G;" vertex="1" parent="3FqnuOCyZMVW-b-WIu23-46">
          <mxGeometry x="375" y="407" width="90" height="48" as="geometry" />
        </mxCell>
        <mxCell id="3FqnuOCyZMVW-b-WIu23-121" style="edgeStyle=orthogonalEdgeStyle;rounded=0;orthogonalLoop=1;jettySize=auto;html=1;exitX=0;exitY=0.5;exitDx=0;exitDy=0;curved=1;" edge="1" parent="3FqnuOCyZMVW-b-WIu23-46" source="3FqnuOCyZMVW-b-WIu23-65">
          <mxGeometry relative="1" as="geometry">
            <mxPoint x="530" y="390" as="targetPoint" />
            <Array as="points">
              <mxPoint x="778" y="390" />
            </Array>
          </mxGeometry>
        </mxCell>
        <mxCell id="3FqnuOCyZMVW-b-WIu23-82" value="라이어 게임" style="html=1;overflow=block;blockSpacing=1;whiteSpace=wrap;ellipse;fontSize=13;spacing=3.8;strokeColor=#3a414a;strokeOpacity=100;fillOpacity=100;rounded=1;absoluteArcSize=1;arcSize=9;fillColor=#ffffff;strokeWidth=1.5;lucidId=KHh33bSPmC2s;" vertex="1" parent="3FqnuOCyZMVW-b-WIu23-46">
          <mxGeometry x="485" y="408" width="90" height="48" as="geometry" />
        </mxCell>
        <mxCell id="3FqnuOCyZMVW-b-WIu23-98" style="rounded=0;orthogonalLoop=1;jettySize=auto;html=1;exitX=0.5;exitY=0.5;exitDx=0;exitDy=0;exitPerimeter=0;entryX=0;entryY=0.5;entryDx=0;entryDy=0;endArrow=none;startFill=0;" edge="1" parent="3FqnuOCyZMVW-b-WIu23-46" source="3FqnuOCyZMVW-b-WIu23-91" target="3FqnuOCyZMVW-b-WIu23-86">
          <mxGeometry relative="1" as="geometry" />
        </mxCell>
        <mxCell id="3FqnuOCyZMVW-b-WIu23-91" value="고객" style="shape=umlActor;verticalLabelPosition=bottom;verticalAlign=top;html=1;outlineConnect=0;labelBackgroundColor=#FFD966;" vertex="1" parent="3FqnuOCyZMVW-b-WIu23-46">
          <mxGeometry y="560" width="95" height="180" as="geometry" />
        </mxCell>
        <mxCell id="3FqnuOCyZMVW-b-WIu23-118" value="소셜 퀴즈 게임" style="swimlane;whiteSpace=wrap;html=1;fillColor=#fff2cc;strokeColor=#d6b656;startSize=30;textShadow=1;" vertex="1" parent="3FqnuOCyZMVW-b-WIu23-46">
          <mxGeometry x="204" y="90" width="796" height="1060" as="geometry" />
        </mxCell>
        <mxCell id="3FqnuOCyZMVW-b-WIu23-77" value="회원 관리" style="html=1;overflow=block;blockSpacing=1;whiteSpace=wrap;ellipse;fontSize=13;spacing=3.8;strokeColor=#3a414a;strokeOpacity=100;fillOpacity=100;rounded=1;absoluteArcSize=1;arcSize=9;fillColor=#ffffff;strokeWidth=1.5;lucidId=SFh3dxPsDS7k;" vertex="1" parent="3FqnuOCyZMVW-b-WIu23-118">
          <mxGeometry x="574" y="850" width="120" height="60" as="geometry" />
        </mxCell>
        <mxCell id="3FqnuOCyZMVW-b-WIu23-80" value="공지 게시판" style="html=1;overflow=block;blockSpacing=1;whiteSpace=wrap;ellipse;fontSize=13;spacing=3.8;strokeColor=#3a414a;strokeOpacity=100;fillOpacity=100;rounded=1;absoluteArcSize=1;arcSize=9;fillColor=#ffffff;strokeWidth=1.5;lucidId=uGh3OzBLR.cp;" vertex="1" parent="3FqnuOCyZMVW-b-WIu23-118">
          <mxGeometry x="338" y="475" width="120" height="60" as="geometry" />
        </mxCell>
        <mxCell id="3FqnuOCyZMVW-b-WIu23-79" value="접속 회원 조회" style="html=1;overflow=block;blockSpacing=1;whiteSpace=wrap;ellipse;fontSize=13;spacing=3.8;strokeColor=#3a414a;strokeOpacity=100;fillOpacity=100;rounded=1;absoluteArcSize=1;arcSize=9;fillColor=#ffffff;strokeWidth=1.5;lucidId=fGh39~cY~Sns;" vertex="1" parent="3FqnuOCyZMVW-b-WIu23-118">
          <mxGeometry x="574" y="720" width="120" height="60" as="geometry" />
        </mxCell>
        <mxCell id="3FqnuOCyZMVW-b-WIu23-78" value="게임 실행 관리" style="html=1;overflow=block;blockSpacing=1;whiteSpace=wrap;ellipse;fontSize=13;spacing=3.8;strokeColor=#3a414a;strokeOpacity=100;fillOpacity=100;rounded=1;absoluteArcSize=1;arcSize=9;fillColor=#ffffff;strokeWidth=1.5;lucidId=8Fh3Wd_DO-Hv;" vertex="1" parent="3FqnuOCyZMVW-b-WIu23-118">
          <mxGeometry x="574" y="590" width="120" height="60" as="geometry" />
        </mxCell>
        <mxCell id="3FqnuOCyZMVW-b-WIu23-63" value="게임 실행" style="html=1;overflow=block;blockSpacing=1;whiteSpace=wrap;ellipse;fontSize=13;spacing=3.8;strokeColor=#3a414a;strokeOpacity=100;fillOpacity=100;rounded=1;absoluteArcSize=1;arcSize=9;fillColor=#ffffff;strokeWidth=1.5;lucidId=v6J1DkmEYp-Z;" vertex="1" parent="3FqnuOCyZMVW-b-WIu23-118">
          <mxGeometry x="100" y="610" width="120" height="60" as="geometry" />
        </mxCell>
        <mxCell id="3FqnuOCyZMVW-b-WIu23-64" value="랭킹 조회" style="html=1;overflow=block;blockSpacing=1;whiteSpace=wrap;ellipse;fontSize=13;spacing=3.8;strokeColor=#3a414a;strokeOpacity=100;fillOpacity=100;rounded=1;absoluteArcSize=1;arcSize=9;fillColor=#ffffff;strokeWidth=1.5;lucidId=K_J10zu-~itf;" vertex="1" parent="3FqnuOCyZMVW-b-WIu23-118">
          <mxGeometry x="100" y="720" width="120" height="60" as="geometry" />
        </mxCell>
        <mxCell id="3FqnuOCyZMVW-b-WIu23-85" value="전적 조회" style="html=1;overflow=block;blockSpacing=1;whiteSpace=wrap;ellipse;fontSize=13;spacing=3.8;strokeColor=#3a414a;strokeOpacity=100;fillOpacity=100;rounded=1;absoluteArcSize=1;arcSize=9;fillColor=#ffffff;strokeWidth=1.5;lucidId=GRh32s2mr4dV;" vertex="1" parent="3FqnuOCyZMVW-b-WIu23-118">
          <mxGeometry x="100" y="830" width="120" height="60" as="geometry" />
        </mxCell>
        <mxCell id="3FqnuOCyZMVW-b-WIu23-52" value="회원 정보 수정" style="html=1;overflow=block;blockSpacing=1;whiteSpace=wrap;ellipse;fontSize=13;spacing=3.8;strokeColor=#3a414a;strokeOpacity=100;fillOpacity=100;rounded=1;absoluteArcSize=1;arcSize=9;fillColor=#ffffff;strokeWidth=1.5;lucidId=S-J1uBuFJZcr;" vertex="1" parent="3FqnuOCyZMVW-b-WIu23-118">
          <mxGeometry x="100" y="940" width="120" height="60" as="geometry" />
        </mxCell>
        <mxCell id="3FqnuOCyZMVW-b-WIu23-70" value="대기방 접속" style="html=1;overflow=block;blockSpacing=1;whiteSpace=wrap;ellipse;fontSize=13;spacing=3.8;strokeColor=#3a414a;strokeOpacity=100;fillOpacity=100;rounded=1;absoluteArcSize=1;arcSize=9;fillColor=#ffffff;strokeWidth=1.5;lucidId=eq815WAz81-n;" vertex="1" parent="3FqnuOCyZMVW-b-WIu23-118">
          <mxGeometry x="100" y="500" width="120" height="60" as="geometry" />
        </mxCell>
        <mxCell id="3FqnuOCyZMVW-b-WIu23-58" value="게임선택" style="html=1;overflow=block;blockSpacing=1;whiteSpace=wrap;ellipse;fontSize=13;spacing=3.8;strokeColor=#3a414a;strokeOpacity=100;fillOpacity=100;rounded=1;absoluteArcSize=1;arcSize=9;fillColor=#ffffff;strokeWidth=1.5;lucidId=YZJ1vA3I3vkh;" vertex="1" parent="3FqnuOCyZMVW-b-WIu23-118">
          <mxGeometry x="110" y="187" width="120" height="60" as="geometry" />
        </mxCell>
        <mxCell id="3FqnuOCyZMVW-b-WIu23-138" style="rounded=0;orthogonalLoop=1;jettySize=auto;html=1;exitX=0;exitY=0.5;exitDx=0;exitDy=0;dashed=1;endArrow=open;endFill=0;" edge="1" parent="3FqnuOCyZMVW-b-WIu23-118" source="3FqnuOCyZMVW-b-WIu23-81">
          <mxGeometry relative="1" as="geometry">
            <mxPoint x="-154" y="550" as="targetPoint" />
            <Array as="points">
              <mxPoint x="66" y="400" />
            </Array>
          </mxGeometry>
        </mxCell>
        <mxCell id="3FqnuOCyZMVW-b-WIu23-81" value="1:1 문의 게시판" style="html=1;overflow=block;blockSpacing=1;whiteSpace=wrap;ellipse;fontSize=13;spacing=3.8;strokeColor=#3a414a;strokeOpacity=100;fillOpacity=100;rounded=1;absoluteArcSize=1;arcSize=9;fillColor=#ffffff;strokeWidth=1.5;lucidId=KGh3WyuwHCPM;" vertex="1" parent="3FqnuOCyZMVW-b-WIu23-118">
          <mxGeometry x="338" y="370" width="120" height="60" as="geometry" />
        </mxCell>
        <mxCell id="3FqnuOCyZMVW-b-WIu23-86" value="회원 가입" style="html=1;overflow=block;blockSpacing=1;whiteSpace=wrap;ellipse;fontSize=13;spacing=3.8;strokeColor=#3a414a;strokeOpacity=100;fillOpacity=100;rounded=1;absoluteArcSize=1;arcSize=9;fillColor=#ffffff;strokeWidth=1.5;lucidId=4Th3R0dDhUZ1;" vertex="1" parent="3FqnuOCyZMVW-b-WIu23-118">
          <mxGeometry x="110" y="80" width="120" height="60" as="geometry" />
        </mxCell>
        <mxCell id="3FqnuOCyZMVW-b-WIu23-49" value="로그인" style="html=1;overflow=block;blockSpacing=1;whiteSpace=wrap;ellipse;fontSize=13;spacing=3.8;strokeColor=#3a414a;strokeOpacity=100;fillOpacity=100;rounded=1;absoluteArcSize=1;arcSize=9;fillColor=#ffffff;strokeWidth=1.5;lucidId=ZTJ1q10Xaa1X;" vertex="1" parent="3FqnuOCyZMVW-b-WIu23-118">
          <mxGeometry x="356" y="170" width="105" height="48" as="geometry" />
        </mxCell>
        <mxCell id="3FqnuOCyZMVW-b-WIu23-71" value="" style="html=1;jettySize=18;whiteSpace=wrap;fontSize=13;strokeOpacity=100;dashed=1;fixDash=1;strokeWidth=0.8;rounded=0;startArrow=none;endArrow=open;exitX=0.811;exitY=0.095;exitPerimeter=0;entryX=0;entryY=0.413;entryPerimeter=0;lucidId=Ivh31S14osaX;" edge="1" parent="3FqnuOCyZMVW-b-WIu23-118" source="3FqnuOCyZMVW-b-WIu23-58" target="3FqnuOCyZMVW-b-WIu23-49">
          <mxGeometry width="100" height="100" relative="1" as="geometry">
            <Array as="points" />
          </mxGeometry>
        </mxCell>
        <mxCell id="3FqnuOCyZMVW-b-WIu23-72" value="&amp;lt;&amp;lt;include&amp;gt;&amp;gt;" style="text;html=1;resizable=0;labelBackgroundColor=default;align=center;verticalAlign=middle;fontStyle=1;fontColor=#333333;fontSize=13.3;" vertex="1" parent="3FqnuOCyZMVW-b-WIu23-71">
          <mxGeometry relative="1" as="geometry" />
        </mxCell>
        <mxCell id="3FqnuOCyZMVW-b-WIu23-73" value="관리자 페이지&#xa;접속" style="html=1;overflow=block;blockSpacing=1;whiteSpace=wrap;ellipse;fontSize=13;spacing=3.8;strokeColor=#3a414a;strokeOpacity=100;fillOpacity=100;rounded=1;absoluteArcSize=1;arcSize=9;fillColor=#ffffff;strokeWidth=1.5;lucidId=7Ch3JPJu9Uv0;" vertex="1" parent="3FqnuOCyZMVW-b-WIu23-118">
          <mxGeometry x="574" y="187" width="120" height="60" as="geometry" />
        </mxCell>
        <mxCell id="3FqnuOCyZMVW-b-WIu23-75" value="" style="html=1;jettySize=18;whiteSpace=wrap;fontSize=13;strokeOpacity=100;dashed=1;fixDash=1;strokeWidth=0.8;rounded=0;startArrow=none;endArrow=open;exitX=0.116;exitY=0.166;exitPerimeter=0;entryX=1.007;entryY=0.5;entryPerimeter=0;lucidId=XDh3Lcemo43s;" edge="1" parent="3FqnuOCyZMVW-b-WIu23-118" source="3FqnuOCyZMVW-b-WIu23-73" target="3FqnuOCyZMVW-b-WIu23-49">
          <mxGeometry width="100" height="100" relative="1" as="geometry">
            <Array as="points" />
          </mxGeometry>
        </mxCell>
        <mxCell id="3FqnuOCyZMVW-b-WIu23-76" value="&amp;lt;&amp;lt;include&amp;gt;&amp;gt;" style="text;html=1;resizable=0;labelBackgroundColor=default;align=center;verticalAlign=middle;fontStyle=1;fontColor=#333333;fontSize=13.3;" vertex="1" parent="3FqnuOCyZMVW-b-WIu23-75">
          <mxGeometry relative="1" as="geometry" />
        </mxCell>
        <mxCell id="3FqnuOCyZMVW-b-WIu23-139" style="rounded=0;orthogonalLoop=1;jettySize=auto;html=1;exitX=0;exitY=0.5;exitDx=0;exitDy=0;dashed=1;endArrow=open;endFill=0;" edge="1" parent="3FqnuOCyZMVW-b-WIu23-118">
          <mxGeometry relative="1" as="geometry">
            <mxPoint x="-154" y="550" as="targetPoint" />
            <mxPoint x="338" y="505" as="sourcePoint" />
            <Array as="points">
              <mxPoint x="66" y="400" />
            </Array>
          </mxGeometry>
        </mxCell>
        <mxCell id="3FqnuOCyZMVW-b-WIu23-65" value="게임 문제 관리" style="html=1;overflow=block;blockSpacing=1;whiteSpace=wrap;ellipse;fontSize=13;spacing=3.8;strokeColor=#3a414a;strokeOpacity=100;fillOpacity=100;rounded=1;absoluteArcSize=1;arcSize=9;fillColor=#ffffff;strokeWidth=1.5;lucidId=ji81i.-1Eet3;" vertex="1" parent="3FqnuOCyZMVW-b-WIu23-118">
          <mxGeometry x="574" y="310" width="120" height="60" as="geometry" />
        </mxCell>
        <mxCell id="3FqnuOCyZMVW-b-WIu23-101" style="edgeStyle=none;rounded=0;orthogonalLoop=1;jettySize=auto;html=1;exitX=0.5;exitY=0.5;exitDx=0;exitDy=0;exitPerimeter=0;entryX=0;entryY=0.5;entryDx=0;entryDy=0;endArrow=none;startFill=0;" edge="1" parent="3FqnuOCyZMVW-b-WIu23-46" source="3FqnuOCyZMVW-b-WIu23-91" target="3FqnuOCyZMVW-b-WIu23-63">
          <mxGeometry relative="1" as="geometry" />
        </mxCell>
        <mxCell id="3FqnuOCyZMVW-b-WIu23-102" style="edgeStyle=none;rounded=0;orthogonalLoop=1;jettySize=auto;html=1;exitX=0.5;exitY=0.5;exitDx=0;exitDy=0;exitPerimeter=0;entryX=0;entryY=0.5;entryDx=0;entryDy=0;endArrow=none;startFill=0;" edge="1" parent="3FqnuOCyZMVW-b-WIu23-46" source="3FqnuOCyZMVW-b-WIu23-91" target="3FqnuOCyZMVW-b-WIu23-64">
          <mxGeometry relative="1" as="geometry" />
        </mxCell>
        <mxCell id="3FqnuOCyZMVW-b-WIu23-103" style="edgeStyle=none;rounded=0;orthogonalLoop=1;jettySize=auto;html=1;exitX=0.5;exitY=0.5;exitDx=0;exitDy=0;exitPerimeter=0;entryX=0;entryY=0.5;entryDx=0;entryDy=0;endArrow=none;startFill=0;" edge="1" parent="3FqnuOCyZMVW-b-WIu23-46" source="3FqnuOCyZMVW-b-WIu23-91" target="3FqnuOCyZMVW-b-WIu23-85">
          <mxGeometry relative="1" as="geometry" />
        </mxCell>
        <mxCell id="3FqnuOCyZMVW-b-WIu23-117" style="rounded=0;orthogonalLoop=1;jettySize=auto;html=1;exitX=0.5;exitY=0.5;exitDx=0;exitDy=0;exitPerimeter=0;entryX=0;entryY=0.5;entryDx=0;entryDy=0;endArrow=none;startFill=0;" edge="1" parent="3FqnuOCyZMVW-b-WIu23-46" source="3FqnuOCyZMVW-b-WIu23-91" target="3FqnuOCyZMVW-b-WIu23-52">
          <mxGeometry relative="1" as="geometry" />
        </mxCell>
        <mxCell id="3FqnuOCyZMVW-b-WIu23-100" style="edgeStyle=none;rounded=0;orthogonalLoop=1;jettySize=auto;html=1;exitX=0.5;exitY=0.5;exitDx=0;exitDy=0;exitPerimeter=0;entryX=0;entryY=0.5;entryDx=0;entryDy=0;endArrow=none;startFill=0;" edge="1" parent="3FqnuOCyZMVW-b-WIu23-46" source="3FqnuOCyZMVW-b-WIu23-91" target="3FqnuOCyZMVW-b-WIu23-70">
          <mxGeometry relative="1" as="geometry" />
        </mxCell>
        <mxCell id="3FqnuOCyZMVW-b-WIu23-99" style="rounded=0;orthogonalLoop=1;jettySize=auto;html=1;exitX=0.5;exitY=0.5;exitDx=0;exitDy=0;exitPerimeter=0;entryX=0;entryY=0.5;entryDx=0;entryDy=0;endArrow=none;startFill=0;" edge="1" parent="3FqnuOCyZMVW-b-WIu23-46" source="3FqnuOCyZMVW-b-WIu23-91" target="3FqnuOCyZMVW-b-WIu23-58">
          <mxGeometry relative="1" as="geometry" />
        </mxCell>
        <mxCell id="3FqnuOCyZMVW-b-WIu23-114" style="edgeStyle=orthogonalEdgeStyle;rounded=0;orthogonalLoop=1;jettySize=auto;html=1;exitX=0.5;exitY=0;exitDx=0;exitDy=0;entryX=0.5;entryY=1;entryDx=0;entryDy=0;endArrow=none;startFill=0;" edge="1" parent="3FqnuOCyZMVW-b-WIu23-46" source="3FqnuOCyZMVW-b-WIu23-82" target="3FqnuOCyZMVW-b-WIu23-58">
          <mxGeometry relative="1" as="geometry">
            <Array as="points">
              <mxPoint x="530" y="390" />
              <mxPoint x="380" y="390" />
              <mxPoint x="380" y="337" />
            </Array>
          </mxGeometry>
        </mxCell>
        <mxCell id="3FqnuOCyZMVW-b-WIu23-116" style="edgeStyle=orthogonalEdgeStyle;rounded=0;orthogonalLoop=1;jettySize=auto;html=1;exitX=0.5;exitY=0;exitDx=0;exitDy=0;" edge="1" parent="3FqnuOCyZMVW-b-WIu23-46" source="3FqnuOCyZMVW-b-WIu23-59" target="3FqnuOCyZMVW-b-WIu23-58">
          <mxGeometry relative="1" as="geometry">
            <Array as="points">
              <mxPoint x="310" y="390" />
              <mxPoint x="380" y="390" />
            </Array>
          </mxGeometry>
        </mxCell>
        <mxCell id="3FqnuOCyZMVW-b-WIu23-131" value="&amp;lt;&amp;lt;extend&amp;gt;&amp;gt;" style="text;html=1;resizable=0;labelBackgroundColor=default;align=center;verticalAlign=middle;fontStyle=1;fontColor=#333333;fontSize=13.3;" vertex="1" parent="3FqnuOCyZMVW-b-WIu23-46">
          <mxGeometry x="601.998524545752" y="267.28399164848224" as="geometry">
            <mxPoint x="-178" y="234" as="offset" />
          </mxGeometry>
        </mxCell>
        <mxCell id="3FqnuOCyZMVW-b-WIu23-134" style="edgeStyle=orthogonalEdgeStyle;rounded=0;orthogonalLoop=1;jettySize=auto;html=1;exitX=0;exitY=0;exitDx=0;exitDy=0;" edge="1" parent="3FqnuOCyZMVW-b-WIu23-46" source="3FqnuOCyZMVW-b-WIu23-131" target="3FqnuOCyZMVW-b-WIu23-131">
          <mxGeometry relative="1" as="geometry" />
        </mxCell>
        <mxCell id="3FqnuOCyZMVW-b-WIu23-141" style="edgeStyle=orthogonalEdgeStyle;rounded=0;orthogonalLoop=1;jettySize=auto;html=1;endArrow=none;startFill=0;" edge="1" parent="3FqnuOCyZMVW-b-WIu23-46" source="3FqnuOCyZMVW-b-WIu23-60">
          <mxGeometry relative="1" as="geometry">
            <mxPoint x="380" y="340" as="targetPoint" />
            <Array as="points">
              <mxPoint x="420" y="390" />
              <mxPoint x="380" y="390" />
            </Array>
          </mxGeometry>
        </mxCell>
        <mxCell id="3FqnuOCyZMVW-b-WIu23-108" style="edgeStyle=none;rounded=0;orthogonalLoop=1;jettySize=auto;html=1;exitX=0.5;exitY=0.5;exitDx=0;exitDy=0;exitPerimeter=0;entryX=1;entryY=0.5;entryDx=0;entryDy=0;endArrow=none;startFill=0;" edge="1" parent="1" source="3FqnuOCyZMVW-b-WIu23-95" target="3FqnuOCyZMVW-b-WIu23-78">
          <mxGeometry relative="1" as="geometry" />
        </mxCell>
        <mxCell id="3FqnuOCyZMVW-b-WIu23-109" style="edgeStyle=none;rounded=0;orthogonalLoop=1;jettySize=auto;html=1;exitX=0.5;exitY=0.5;exitDx=0;exitDy=0;exitPerimeter=0;entryX=1;entryY=0.5;entryDx=0;entryDy=0;endArrow=none;startFill=0;" edge="1" parent="1" source="3FqnuOCyZMVW-b-WIu23-95" target="3FqnuOCyZMVW-b-WIu23-79">
          <mxGeometry relative="1" as="geometry" />
        </mxCell>
        <mxCell id="3FqnuOCyZMVW-b-WIu23-110" style="edgeStyle=none;rounded=0;orthogonalLoop=1;jettySize=auto;html=1;exitX=0.5;exitY=0.5;exitDx=0;exitDy=0;exitPerimeter=0;entryX=1;entryY=0.5;entryDx=0;entryDy=0;endArrow=none;startFill=0;" edge="1" parent="1" source="3FqnuOCyZMVW-b-WIu23-95" target="3FqnuOCyZMVW-b-WIu23-80">
          <mxGeometry relative="1" as="geometry" />
        </mxCell>
        <mxCell id="3FqnuOCyZMVW-b-WIu23-111" style="edgeStyle=none;rounded=0;orthogonalLoop=1;jettySize=auto;html=1;exitX=0.5;exitY=0.5;exitDx=0;exitDy=0;exitPerimeter=0;entryX=1;entryY=0.5;entryDx=0;entryDy=0;endArrow=none;startFill=0;" edge="1" parent="1" source="3FqnuOCyZMVW-b-WIu23-95" target="3FqnuOCyZMVW-b-WIu23-81">
          <mxGeometry relative="1" as="geometry" />
        </mxCell>
        <mxCell id="3FqnuOCyZMVW-b-WIu23-95" value="관리자" style="shape=umlActor;verticalLabelPosition=bottom;verticalAlign=top;html=1;outlineConnect=0;labelBackgroundColor=#FFD966;" vertex="1" parent="1">
          <mxGeometry x="1300" y="540" width="95" height="180" as="geometry" />
        </mxCell>
        <mxCell id="3FqnuOCyZMVW-b-WIu23-106" style="edgeStyle=none;rounded=0;orthogonalLoop=1;jettySize=auto;html=1;entryX=1;entryY=0.5;entryDx=0;entryDy=0;exitX=0.5;exitY=0.5;exitDx=0;exitDy=0;exitPerimeter=0;endArrow=none;startFill=0;" edge="1" parent="1" source="3FqnuOCyZMVW-b-WIu23-95" target="3FqnuOCyZMVW-b-WIu23-77">
          <mxGeometry relative="1" as="geometry" />
        </mxCell>
        <mxCell id="3FqnuOCyZMVW-b-WIu23-105" style="edgeStyle=none;rounded=0;orthogonalLoop=1;jettySize=auto;html=1;exitX=0.5;exitY=0.5;exitDx=0;exitDy=0;entryX=1;entryY=0.5;entryDx=0;entryDy=0;exitPerimeter=0;endArrow=none;startFill=0;" edge="1" parent="1" source="3FqnuOCyZMVW-b-WIu23-95" target="3FqnuOCyZMVW-b-WIu23-65">
          <mxGeometry relative="1" as="geometry" />
        </mxCell>
        <mxCell id="3FqnuOCyZMVW-b-WIu23-104" style="edgeStyle=none;rounded=0;orthogonalLoop=1;jettySize=auto;html=1;exitX=0.5;exitY=0.5;exitDx=0;exitDy=0;entryX=1;entryY=0.5;entryDx=0;entryDy=0;exitPerimeter=0;endArrow=none;startFill=0;" edge="1" parent="1" source="3FqnuOCyZMVW-b-WIu23-95" target="3FqnuOCyZMVW-b-WIu23-73">
          <mxGeometry relative="1" as="geometry" />
        </mxCell>
        <mxCell id="3FqnuOCyZMVW-b-WIu23-140" value="&amp;lt;&amp;lt;extend&amp;gt;&amp;gt;" style="text;html=1;resizable=0;labelBackgroundColor=default;align=center;verticalAlign=middle;fontStyle=1;fontColor=#333333;fontSize=13.3;" vertex="1" parent="1">
          <mxGeometry x="880.4473376225219" y="242.2981806714422" as="geometry">
            <mxPoint x="-238" y="296" as="offset" />
          </mxGeometry>
        </mxCell>
      </root>
    </mxGraphModel>
  </diagram>
</mxfile>
